<?xml version="1.0" encoding="UTF-8" standalone="no"?>
<!-- Created with Inkscape (http://www.inkscape.org/) -->

<svg
   width="185mm"
   height="144mm"
   viewBox="0 0 185 144"
   version="1.1"
   id="svg5"
   inkscape:version="1.1.2 (0a00cf5339, 2022-02-04)"
   sodipodi:docname="amp-axlUSDC-LUNA.svg"
   xmlns:inkscape="http://www.inkscape.org/namespaces/inkscape"
   xmlns:sodipodi="http://sodipodi.sourceforge.net/DTD/sodipodi-0.dtd"
   xmlns:xlink="http://www.w3.org/1999/xlink"
   xmlns="http://www.w3.org/2000/svg"
   xmlns:svg="http://www.w3.org/2000/svg">
  <sodipodi:namedview
     id="namedview7"
     pagecolor="#ffffff"
     bordercolor="#666666"
     borderopacity="1.0"
     inkscape:pageshadow="2"
     inkscape:pageopacity="0.0"
     inkscape:pagecheckerboard="0"
     inkscape:document-units="mm"
     showgrid="false"
     inkscape:zoom="0.69664703"
     inkscape:cx="323.69334"
     inkscape:cy="406.94927"
     inkscape:window-width="1846"
     inkscape:window-height="1016"
     inkscape:window-x="0"
     inkscape:window-y="0"
     inkscape:window-maximized="1"
     inkscape:current-layer="layer1" />
  <defs
     id="defs2">
    <linearGradient
       id="eb02f8e5-3128-479f-a28f-ac4d96c74535"
       x1="107.88"
       y1="180.59"
       x2="159.63"
       y2="302.5"
       gradientUnits="userSpaceOnUse">
      <stop
         offset="0"
         stop-color="#f7d45c"
         id="stop824" />
      <stop
         offset="1"
         stop-color="#de3633"
         id="stop826" />
    </linearGradient>
    <linearGradient
       id="b44de3ab-3e53-4c39-8dff-3838e27c7486"
       x1="46.599998"
       y1="58.200001"
       x2="167.36"
       y2="193.89999"
       xlink:href="#eb02f8e5-3128-479f-a28f-ac4d96c74535" />
    <linearGradient
       inkscape:collect="always"
       xlink:href="#eb02f8e5-3128-479f-a28f-ac4d96c74535"
       id="linearGradient844"
       gradientUnits="userSpaceOnUse"
       x1="107.88"
       y1="180.59"
       x2="159.63"
       y2="302.5" />
    <linearGradient
       id="paint0_linear_204_5465"
       x1="0.51282001"
       y1="-0.00045425101"
       x2="40"
       y2="-0.00045461001"
       gradientUnits="userSpaceOnUse">
      <stop
         stop-color="#9500CD"
         id="stop865" />
      <stop
         offset="0.21875"
         stop-color="#3F3FF7"
         id="stop867" />
      <stop
         offset="0.484375"
         stop-color="#02B8D5"
         id="stop869" />
      <stop
         offset="0.640625"
         stop-color="#01C541"
         id="stop871" />
      <stop
         offset="0.776042"
         stop-color="#F5FE00"
         id="stop873" />
      <stop
         offset="0.895833"
         stop-color="#FFA301"
         id="stop875" />
      <stop
         offset="1"
         stop-color="#FE0000"
         id="stop877" />
    </linearGradient>
    <linearGradient
       id="paint0_linear_204_5465-9"
       x1="0.51282001"
       y1="-0.00045425101"
       x2="40"
       y2="-0.00045461001"
       gradientUnits="userSpaceOnUse">
      <stop
         stop-color="#9500CD"
         id="stop1043" />
      <stop
         offset="0.21875"
         stop-color="#3F3FF7"
         id="stop1045" />
      <stop
         offset="0.484375"
         stop-color="#02B8D5"
         id="stop1047" />
      <stop
         offset="0.640625"
         stop-color="#01C541"
         id="stop1049" />
      <stop
         offset="0.776042"
         stop-color="#F5FE00"
         id="stop1051" />
      <stop
         offset="0.895833"
         stop-color="#FFA301"
         id="stop1053" />
      <stop
         offset="1"
         stop-color="#FE0000"
         id="stop1055" />
    </linearGradient>
  </defs>
  <g
     inkscape:label="Calque 1"
     inkscape:groupmode="layer"
     id="layer1">
    <g
       id="b2416af4-ebd2-430f-8205-47ebd4138157"
       data-name="Layer 6"
       transform="matrix(0.36044023,0,0,0.36044023,0.01006301,35.639739)">
      <ellipse
         cx="132.59"
         cy="167.16"
         rx="131.86"
         ry="132.03"
         fill="#f2e373"
         id="ellipse832" />
      <path
         d="M 186.17,153.48 6,207.22 c 8.22,26.19 25,50.35 50.42,68.21 62.74,44 141,25.28 190.06,-27.26 1.05,-1.13 0,-3 -1.42,-2.36 a 48.06,48.06 0 0 1 -29.58,3.68 47.28,47.28 0 0 1 -37.57,-37.49 48,48 0 0 1 33.6,-55.37 z"
         fill-rule="evenodd"
         fill="url(#eb02f8e5-3128-479f-a28f-ac4d96c74535)"
         id="path834"
         style="fill:url(#linearGradient844)" />
      <path
         d="m 165.36,143 a 82.69,82.69 0 0 0 10.33,-5.11 81.64,81.64 0 0 1 101.38,16.28 1.45,1.45 0 0 1 -1.42,2.35 c -22.46,-4.73 -46.67,-5.66 -65.11,0.37 -22.23,7.29 -38.54,23.11 -49.83,42.74 -16.54,28.78 -23.35,36.92 -50.07,47.34 -46.56,18.18 -90,1.71 -104.63,-39.68 A 133.12,133.12 0 0 1 71.69,49.54 C 87.82,41 107.38,33.8 123.76,29.06 139.55,24.55 166.42,18 173.35,1 a 1.57,1.57 0 0 1 3,0.43 c 2.77,20.09 -1.83,29.24 -13.36,40.09 -12.5,11.77 -27.93,17.13 -41.77,25.63 -21.11,14 -27.8,39.57 -13.8,60.68 8.32,12.55 22.49,19.21 37.38,19.21 a 56.82,56.82 0 0 0 13.55,-1.68 52.56,52.56 0 0 0 7.01,-2.36 z"
         fill-rule="evenodd"
         fill="url(#b44de3ab-3e53-4c39-8dff-3838e27c7486)"
         id="path836"
         style="fill:url(#b44de3ab-3e53-4c39-8dff-3838e27c7486)" />
    </g>
    <g
       id="g914"
       transform="matrix(0.05,0,0,0.05,85,43.658318)">
      <path
         d="m 1000,2000 c 554.17,0 1000,-445.83 1000,-1000 C 2000,445.83 1554.17,0 1000,0 445.83,0 0,445.83 0,1000 0,1554.17 445.83,2000 1000,2000 Z"
         fill="#2775ca"
         id="path899" />
      <path
         d="m 1275,1158.33 c 0,-145.83 -87.5,-195.83 -262.5,-216.66 -125,-16.67 -150,-50 -150,-108.34 0,-58.34 41.67,-95.83 125,-95.83 75,0 116.67,25 137.5,87.5 4.17,12.5 16.67,20.83 29.17,20.83 h 66.66 c 16.67,0 29.17,-12.5 29.17,-29.16 V 812.5 C 1233.33,720.83 1158.33,650 1062.5,641.67 v -100 c 0,-16.67 -12.5,-29.17 -33.33,-33.34 h -62.5 c -16.67,0 -29.17,12.5 -33.34,33.34 v 95.83 c -125,16.67 -204.16,100 -204.16,204.17 0,137.5 83.33,191.66 258.33,212.5 116.67,20.83 154.17,45.83 154.17,112.5 0,66.67 -58.34,112.5 -137.5,112.5 -108.34,0 -145.84,-45.84 -158.34,-108.34 -4.16,-16.66 -16.66,-25 -29.16,-25 h -70.84 c -16.66,0 -29.16,12.5 -29.16,29.17 v 4.17 c 16.66,104.16 83.33,179.16 220.83,200 v 100 c 0,16.66 12.5,29.16 33.33,33.33 h 62.5 c 16.67,0 29.17,-12.5 33.34,-33.33 v -100 c 125,-20.84 208.33,-108.34 208.33,-220.84 z"
         fill="#ffffff"
         id="path901" />
      <path
         d="m 787.5,1595.83 c -325,-116.66 -491.67,-479.16 -370.83,-800 62.5,-175 200,-308.33 370.83,-370.83 16.67,-8.33 25,-20.83 25,-41.67 V 325 c 0,-16.67 -8.33,-29.17 -25,-33.33 -4.17,0 -12.5,0 -16.67,4.16 -395.83,125 -612.5,545.84 -487.5,941.67 75,233.33 254.17,412.5 487.5,487.5 16.67,8.33 33.34,0 37.5,-16.67 4.17,-4.16 4.17,-8.33 4.17,-16.66 v -58.34 c 0,-12.5 -12.5,-29.16 -25,-37.5 z m 441.67,-1300 c -16.67,-8.33 -33.34,0 -37.5,16.67 -4.17,4.17 -4.17,8.33 -4.17,16.67 v 58.33 c 0,16.67 12.5,33.33 25,41.67 325,116.66 491.67,479.16 370.83,800 -62.5,175 -200,308.33 -370.83,370.83 -16.67,8.33 -25,20.83 -25,41.67 V 1700 c 0,16.67 8.33,29.17 25,33.33 4.17,0 12.5,0 16.67,-4.16 395.83,-125 612.5,-545.84 487.5,-941.67 -75,-237.5 -258.34,-416.67 -487.5,-491.67 z"
         fill="#ffffff"
         id="path903" />
    </g>
    <g
       style="overflow:visible"
       id="g1294"
       transform="matrix(0.69075357,0,0,0.69075357,40,1.4283389)">
      <path
         fill="#ffffff"
         d="M 24,2 C 36.1308,2 46,11.8692 46,24 46,36.1308 36.1308,46 24,46 11.8692,46 2,36.1308 2,24 2,11.8692 11.8692,2 24,2 M 24,0 C 10.7452,0 0,10.7452 0,24 0,37.2548 10.7452,48 24,48 37.2548,48 48,37.2548 48,24 48,10.7452 37.2548,0 24,0 Z"
         id="path1259" />
      <path
         fill="#ffffff"
         d="M 24,5 C 34.4766,5 43,13.5234 43,24 43,34.4766 34.4766,43 24,43 13.5234,43 5,34.4766 5,24 5,13.5234 13.5234,5 24,5 M 24,4 C 12.9543,4 4,12.9543 4,24 4,35.0457 12.9543,44 24,44 35.0457,44 44,35.0457 44,24 44,12.9543 35.0457,4 24,4 Z"
         id="path1261" />
      <line
         fill="none"
         stroke="#ffffff"
         stroke-width="2"
         stroke-linecap="round"
         stroke-miterlimit="10"
         x1="24"
         y1="11"
         x2="24"
         y2="37"
         id="line1263" />
      <path
         fill="none"
         stroke="#ffffff"
         stroke-width="2"
         stroke-linecap="round"
         stroke-miterlimit="10"
         d="m 35,14 c -5.5229,0 -10,4.4771 -10,10 0,5.5228 4.4771,10 10,10"
         id="path1265" />
      <path
         fill="none"
         stroke="#ffffff"
         stroke-width="2"
         stroke-linecap="round"
         stroke-miterlimit="10"
         d="m 13,14 c 5.5229,0 10,4.4771 10,10 0,5.5228 -4.4771,10 -10,10"
         id="path1267" />
      <g
         id="g1277">
	<path
   fill="#ffffff"
   d="m 64,9.9958 h 20.4102 v 4.0039 H 68.0039 v 8.0078 h 14.0039 v 4.0044 H 68.0039 v 7.9883 h 16.4062 v 4.0039 H 64 Z"
   id="path1269" />

	<path
   fill="#ffffff"
   d="m 112.5352,19.9958 c 0,3.9062 -1.667,6.1333 -5,6.6802 l 5.2734,11.3281 H 108.375 L 103.1797,26.8127 H 94.4102 V 38.0041 H 90.4063 V 9.9958 h 15.332 c 4.5312,0 6.7969,2.2725 6.7969,6.8164 z m -18.125,2.8125 h 11.1133 c 1.0674,0 1.8359,-0.2344 2.3047,-0.7031 0.4688,-0.4687 0.7031,-1.2368 0.7031,-2.3047 v -2.793 c 0,-1.0674 -0.2344,-1.8359 -0.7031,-2.3047 -0.4687,-0.4688 -1.2373,-0.7031 -2.3047,-0.7031 H 94.4102 Z"
   id="path1271" />

	<path
   fill="#ffffff"
   d="m 123.2188,9.9958 v 28.0083 h -4.0039 V 9.9958 Z"
   id="path1273" />

	<path
   fill="#ffffff"
   d="m 134.4102,26.012 c -0.5469,0 -1.0645,-0.1074 -1.5527,-0.3223 -0.4882,-0.2149 -0.915,-0.501 -1.2793,-0.8599 -0.3643,-0.3579 -0.6514,-0.7812 -0.8594,-1.2695 -0.208,-0.4883 -0.3125,-1.0059 -0.3125,-1.5527 v -8.0078 c 0,-0.5469 0.1045,-1.0645 0.3125,-1.5527 0.208,-0.4882 0.4951,-0.9111 0.8594,-1.2695 0.3643,-0.3579 0.791,-0.6445 1.2793,-0.8594 0.4883,-0.2149 1.0059,-0.3223 1.5527,-0.3223 h 13.5938 c 0.5469,0 1.0645,0.1074 1.5527,0.3223 0.4882,0.2149 0.915,0.5015 1.2793,0.8594 0.3643,0.3584 0.6514,0.7812 0.8594,1.2695 0.208,0.4883 0.3125,1.0059 0.3125,1.5527 v 3.6133 h -4.0039 v -3.6133 h -13.5938 v 8.0078 h 13.5938 c 0.5469,0 1.0645,0.1045 1.5527,0.3125 0.4883,0.2085 0.915,0.4951 1.2793,0.8594 0.3643,0.3647 0.6514,0.791 0.8594,1.2793 0.208,0.4888 0.3125,1.0063 0.3125,1.5532 v 7.9883 c 0,0.5469 -0.1045,1.0645 -0.3125,1.5527 -0.208,0.4882 -0.4951,0.915 -0.8594,1.2793 -0.3643,0.3643 -0.791,0.6514 -1.2793,0.8594 -0.4883,0.208 -1.0059,0.3125 -1.5527,0.3125 h -13.9844 c -0.5469,0 -1.0645,-0.1045 -1.5527,-0.3125 -0.4882,-0.208 -0.915,-0.4951 -1.2793,-0.8594 -0.3643,-0.3643 -0.6514,-0.791 -0.8594,-1.2793 -0.208,-0.4883 -0.3125,-1.0059 -0.3125,-1.5527 v -3.5938 h 4.0039 v 3.5938 H 148.004 V 26.012 Z"
   id="path1275" />

</g>
    </g>
  </g>
</svg>
