<?xml version="1.0" encoding="UTF-8"?><svg id="Layer_1" xmlns="http://www.w3.org/2000/svg" xmlns:xlink="http://www.w3.org/1999/xlink" viewBox="0 0 950.71 1028.05"><defs><style>.cls-1{fill:url(#linear-gradient);}.cls-1,.cls-2,.cls-3,.cls-4{fill-rule:evenodd;}.cls-5{fill:#f0de52;}.cls-6,.cls-3{fill:#ed2321;}.cls-2{fill:none;}.cls-4{fill:url(#linear-gradient-2);}</style><linearGradient id="linear-gradient" x1="369.68" y1="618.86" x2="547.02" y2="1036.61" gradientUnits="userSpaceOnUse"><stop offset="0" stop-color="#facd35"/><stop offset="1" stop-color="#ed2321"/></linearGradient><linearGradient id="linear-gradient-2" x1="159.7" y1="199.43" x2="573.51" y2="664.47" gradientUnits="userSpaceOnUse"><stop offset="0" stop-color="#facd35"/><stop offset="1" stop-color="#ed2321"/></linearGradient></defs><g><ellipse class="cls-5" cx="454.38" cy="572.85" rx="451.85" ry="452.44"/><path class="cls-1" d="M637.98,525.95L20.63,710.11c28.16,89.76,85.52,172.55,172.79,233.73,215.01,150.75,483.03,86.63,651.3-93.41,3.61-3.86-.11-10.34-4.88-8.08-29.91,14.14-64.79,19.48-101.34,12.6-65.06-12.23-116.5-63.57-128.84-128.61-16.67-87.85,37.32-167.35,115.17-189.75l-86.84-10.65Z"/><path class="cls-4" d="M560.41,466.8c12.33-4.99,24.91-17.04,35.94-23.39,23.13-13.32,45.91-11.48,71.87-17.68,26.89-6.43,62.69,8.6,90.28,10.32,76.36,4.74,143.7,39.51,190.97,92.33,3.17,3.55-.2,9.04-4.86,8.06-76.98-16.2-159.94-19.4-223.13,1.27-76.19,24.91-132.17,79.24-170.76,146.4-56.67,98.61-80.02,126.52-171.6,162.22-159.53,62.31-308.27,5.87-358.52-135.97C-41.63,511.56,38.17,279.01,245.67,169.77c55.28-29.15,122.3-53.93,178.42-70.17,54.13-15.47,146.19-37.96,169.94-96.28,2.1-5.16,9.58-4.02,10.34,1.5,9.48,68.83-6.28,100.18-45.8,137.38-42.83,40.33-95.72,58.7-143.14,87.81-72.34,47.97-95.26,135.59-47.29,207.93,28.52,43.01,77.08,65.85,128.08,65.83,15.64,0,15.91-24.04,31.09-27.77,7.98-1.96,25.14-5.98,33.09-9.2Z"/></g><path class="cls-6" d="M71.77,457.03c2.39,6.93,16.86,22.08-8.14,76.34-11.21,24.33,32.96,10.48,32.96,10.48l15.92-34.35-15.77-36.55s-27.38-22.92-24.97-15.92Z"/><g><path class="cls-5" d="M671.3,444.33c1.63-.42,3.26-.83,4.89-1.22,25.12-6,51.05-8.45,76.85-7.35-1.97-46.15-16.33-91.25-42.6-131.73-42.08-65-58.34-146.62-143.93-169.58-87.13-23.54-240.5,8.07-299.17,44.67-25.17,15.7-46.48,30.78-68.39,60.37-18.33,25.1-33.06,45.7-45.01,62.28-9.78,13.57-17.43,24.31-23.85,33-7.68,10.22-6.04,14.92-2.88,23.44,2.55,7,6.11,16.64,7,34.96,.61,11.07-10.86,32.21-26.33,37.79-11.29,3.96-18.79,10.31-21.2,18.01-2.03,6.28-.31,13.21,4.53,19.98,8.11,11.72,15.29,21.83,22.14,36.97,2.42,5.59,1.96,11.78-1.49,16.99-3.93,5.77-10.82,9.2-18.41,8.87-6.43-.19-11.26,1.92-13.8,5.68-2.38,3.79-2.23,8.95,.35,14.59,4.17,8.62-1.63,22.58-8.38,38.85-8.25,19.95-17.75,42.64-14.18,65.6l.07,.36,15.75,29.63c1.95,2.91,3.95,4.98,5.84,6.85,4.76,4.51,9.08,8.75,10.41,24.79,.15,2.6-.31,8.78-.87,15.96-2.38,29.21-3.52,53.8,6.02,56.36h.01s.32,.1,.32,.1c2.9,.61,5.81,1.21,8.68,1.98,15.2,3.73,33.89,8.41,75.77,1.05,19.47-3.3,52.93-11.04,102.4-23.86,1.08-.22,3.61-.74,6.81-1.24,18.35-2.92,61.66-9.9,67.16-30.42,3.93-14.64,27.38-84.57,36.87-102.15,3.28-7.8,10.5-17.06,20.36-27.15,37.5-45.83,125.95-136.28,258.25-164.43Z"/><path class="cls-5" d="M392.68,636.73c-.03,1.73-.01,.82,0,0h0Z"/><path class="cls-5" d="M392.68,636.3s0-.06,0-.08c0,.03,0,.06,0,.08Z"/><path class="cls-5" d="M392.68,636.73c0-.13,0-.27,0-.43,0,.13,0,.28,0,.43Z"/><path class="cls-5" d="M392.68,636.22c0-.07,0-.14,0-.22,0,.05,0,.13,0,.22Z"/><path class="cls-5" d="M392.69,635.99s0-.08,0-.08c0,.03,0,.05,0,.08Z"/></g><path class="cls-6" d="M88.11,787.66c-2.87-.77-5.77-1.37-8.68-1.98l-.32-.09h-.01c-9.54-2.57-8.4-27.16-6.02-56.37,.56-7.18,1.02-13.37,.87-15.96-1.33-16.04-5.65-20.27-10.41-24.79-1.89-1.87-3.89-3.94-5.84-6.85l-15.75-29.63-.07-.36c-3.57-22.95,5.93-45.64,14.18-65.6,6.75-16.27,12.54-30.23,8.38-38.85-2.58-5.64-2.73-10.8-.35-14.59,2.54-3.75,7.37-5.87,13.8-5.68,7.59,.33,14.47-3.1,18.41-8.87,3.45-5.21,3.91-11.4,1.49-16.99-6.85-15.14-14.03-25.25-22.14-36.97-4.84-6.76-6.56-13.7-4.53-19.98,2.41-7.71,9.91-14.05,21.2-18.01,15.47-5.57,26.94-26.71,26.33-37.79-.89-18.32-4.44-27.96-7-34.96-3.17-8.52-4.81-13.22,2.88-23.44,6.42-8.68,14.08-19.42,23.85-33,11.95-16.58,26.68-37.18,45.01-62.28,21.92-29.59,43.23-44.67,68.39-60.37,58.67-36.6,212.04-68.21,299.17-44.67l15.57,4.87c-87.13-23.54-240.5,8.07-299.17,44.67-25.17,15.7-46.48,30.78-68.39,60.37-18.33,25.1-33.06,45.7-45.01,62.28-9.78,13.57-17.43,24.31-23.85,33-7.68,10.22-6.04,14.92-2.88,23.44,2.55,7,6.11,16.64,7,34.96,.61,11.07-10.86,32.21-26.33,37.79-11.29,3.96-18.79,10.31-21.2,18.01-2.03,6.28-.31,13.21,4.53,19.98,8.11,11.72,15.29,21.83,22.14,36.97,2.42,5.59,1.96,11.78-1.49,16.99-3.93,5.77-10.82,9.2-18.41,8.87-6.43-.19-11.26,1.92-13.8,5.68-2.38,3.79-2.23,8.95,.35,14.59,4.17,8.62-1.63,22.58-8.38,38.85-8.25,19.95-17.75,42.64-14.18,65.6l.07,.36,15.75,29.63c1.95,2.91,3.95,4.98,5.84,6.85,4.76,4.51,9.08,8.75,10.41,24.79,.15,2.6-.31,8.78-.87,15.96-2.38,29.21-3.52,53.8,6.02,56.36h.01s.32,.1,.32,.1l-6.89-2.89Z"/><path class="cls-2" d="M602.07,472.61c23.13-13.32,48.17-23.3,74.13-29.5,26.89-6.43,54.71-8.78,82.31-7.07,76.36,4.74,143.7,39.51,190.97,92.33,3.17,3.55-.2,9.04-4.86,8.06-76.98-16.2-159.94-19.4-223.13,1.27-76.19,24.91-132.17,79.24-170.76,146.4-56.67,98.61-80.02,126.52-171.6,162.22-159.53,62.31-308.27,5.87-358.52-135.97C-41.63,511.56,38.17,279.01,245.67,169.77c55.28-29.15,122.3-53.93,178.42-70.17,54.13-15.47,146.19-37.96,169.94-96.28,2.1-5.16,9.58-4.02,10.34,1.5,9.48,68.83-6.28,100.18-45.8,137.38-42.83,40.33-95.72,58.7-143.14,87.81-72.34,47.97-95.26,135.59-47.29,207.93,28.52,43.01,77.08,65.85,128.08,65.83,15.64,0,31.27-2.02,46.45-5.75,7.98-1.96,48.36-19.05,59.39-25.4Z"/><g><path class="cls-6" d="M249.07,683.35c2.23,.6,4.57,1.39,6.92,2.2,.48,.13,1.16-.54,1.7-1.25,8.27-11.76,13.94-72.31,5.45-82.61-1.22-1.18-2.18-1.44-3.7-.82-1.53,.61-3.52,4.85-5.59,9.41-3.78,8.37-9.05,19.74-19.14,28.12-2.39,1.92-3.39,4.38-5.18,11.06l4.45,31.72c4.76,.08,9.85,.77,15.11,2.18h0Z"/><path class="cls-6" d="M68.71,631.05c-1.25,.86-3.96,5.25-5.85,12.24-2.01,7.48-.79,13.77,.03,14.51,.64,.17,1.35,.7,2.49,1.52,.59,.33,1.86,1.35,2.61,1.72,.1-1-.02-3.07-.12-4.64-.23-2.96-.33-6.4-.14-8.39,.07-1.51,.34-3.15,.44-4.82,.47-4.31,1.1-10.45,.52-12.14h0Z"/><path class="cls-6" d="M82.75,633.98c-.48-.13-.95-.25-1.79-.3-.36,.07-.84-.06-1-.1-.72,.15-3.09,3.26-5.44,12.01-2.13,7.95-1.31,13.8-.51,15.89,.99,.78,5.17,1.73,6.26,.83,.82-1.14,2.1-8.47,2.43-13.5,.06-1.52,.58-3.43,.93-5.38,.77-2.87,1.46-6.09,1.05-7.74-.27-.92-.81-1.41-1.93-1.71h0Z"/><path class="cls-6" d="M92.25,635.5c-.96,.42-3.31,4.06-5.38,11.17-2.09,7.79-.98,15.09,.14,17.26,1.42,1.07,8.34,2.58,10.23,1.89,2.29-.92,3.24-9.53,3.48-12.36,.13-.48,.1-.99,.18-1.31,.26-3.51-.9-8.08-2.09-10.62-2.32-4.71-5.14-5.64-6.57-6.02h0Z"/><path class="cls-6" d="M120.12,641.6c-1.26-1.02-6.92-2.2-8.51-1.95-1.77,.89-3.19,2.38-5.37,10.5-2.05,7.64-1.27,13.64,.16,16.58,1.42,1.06,8.5,2.62,9.84,1.45,.98-1.1,2.27-9.11,2.79-11.7l.18-1.31c1.19-7.01,1.39-9.01,.91-13.57h0Z"/><path class="cls-6" d="M134.32,670.66c.34-1.27,.69-5.1,.78-7.98,.16-1.84,.3-3.67,.49-4.99,.23-2.16,.62-3.59,.96-4.86,.73-2.7,.94-3.5-.1-5.99-1.19-2.54-6.87-2.36-7.84-1.93l-.41,.23c-1.08,.22-2.38,1.24-4.51,9.2-1.79,6.68-1.24,12.28-.02,15.34,1.98,.87,9.19,1.95,10.65,.98h0Z"/><path class="cls-6" d="M149.57,645.58c-1.76-.47-3.67-.3-4.23-.12l-.2,.12c-1.28,.34-2.54,1.19-4.63,8.99-2.01,7.48-.52,14.02,.68,16.55l.16,.04c1.59,.43,6.91,.32,8.92-.84,1.77-.89,1.96-4.76,2.03-8.84l.02-1.36q.16-6.95-.23-12.51c.09-.32-.1-.88-.97-1.45-.44-.29-1.07-.46-1.55-.58h0Z"/><path class="cls-6" d="M171.07,670.29c.33-.59,.25-2.83,.05-4.59-.07-1.04-.08-2.23-.15-3.28q-.37-6.24-1.2-11.41c.08-.31-.31-.76-.9-1.09-2.18-1.44-6.73-1.64-7.65-1.37l-.36,.07c-2.12,.28-4.66,1.48-4.52,7.31,.09,2.24,.05,4.27-.06,5.95-.06,3.4-.18,5.75,.63,7.16,.31,.08,1.51,.06,2.51,.16,2.4-.04,6.11,.11,11.49,1.04l.16,.04h0Z"/><path class="cls-6" d="M190.47,671.73c.33-.59,.08-2.88,.2-4.55-.06-1.04-.12-2.08-.19-3.12q-.37-6.24-1.2-11.41c-.12-.2-.19-.56-.9-1.09-2.18-1.44-6.93-1.52-7.65-1.37l-.52,.03c-1.72,.05-4.37,1.05-4.32,7.2,.09,2.24,.05,4.27-.06,5.95-.06,3.4-.18,5.75,.63,7.16,.48,.13,1.51,.06,2.51,.16,2.4-.04,6.11,.11,11.33,1l.16,.04h0Z"/><path class="cls-6" d="M204.92,650.89c-1.91-.51-3.95-.55-4.5-.36l-.36,.07c-2.8,.27-4.16,2.81-4.29,7.72-.12,2.36-.16,4.39-.31,6.23-.13,3.03-.41,5.35,.09,6.67,1.28-.34,3.77-.7,8.98,.19,.68,.01,1.33-.49,1.78-.89,1.38-1.34,2.34-3.63,2.14-6.07q-.18-6.35-.8-11.64c.04-.16-.04-.52-.74-1.05-.43-.29-1.19-.66-1.98-.88h0Z"/><path class="cls-6" d="M220.96,647.68c-1.27-.34-2.63-.36-3.55-.1-1.41,.14-5.05,1.03-5.06,8.7,.03,3.08,0,5.12-.03,6.47,.08,2.24,.03,3.08,.27,5.36,.28,.24,2.1,1.08,5.53-.9,.76-.31,1.37-.65,1.93-.84,2.5-1.04,3.87-1.69,3.72-4.97s.08-4.75,.06-5.95c.18-1.31,.08-2.2-.27-5.36,.05-.84-.34-1.29-1.05-1.82-.44-.29-1.07-.46-1.55-.58h0Z"/><path class="cls-6" d="M84.66,681.55c-.22-1.08-.56-2.36-.5-3.88-.12-2.76-.14-3.28-.1-3.44s-.08-.36-.33-4.52c-.39-.45-2.53-1.36-3.88-2.06-.91-.41-1.98-.87-2.89-1.29-1.23-.5-4.12,.09-6.16,.73-.38,5.87,2.86,10.32,4.89,12.91,.24,.4,.51,.64,.74,1.05q.47,.81,6.15,2.5c1.4-.13,2.08-.12,2.28-.24-.07-.36-.06-1.03-.21-1.76Z"/><path class="cls-6" d="M101.95,673.73c-.35-.6-2.13-1.59-4.23-2.66-1.76,.21-6.04,.26-8.75,.21-.71,6.46-.27,11.18,1.37,13.33l.12,.2c.51,.64,.67,.69,9.95,2.32l.32,.09c.64,.17,1,.09,1.04-.06,.65-.51,.7-3.23,.62-5.47-.12-2.76-.14-3.28-.1-3.44s-.08-.36-.33-4.52h0Z"/><path class="cls-6" d="M117.9,673.41c-1.43-.38-2.72-.05-3.03-.13-1.62,1.61-5.58,1.74-7.94,1.62-1.13,7.37-.44,11.82,.12,16.06,.48,.13,1.64,.26,2.95,.45,2.15,.24,5.47,.62,10.2,1.37,.68,.01,1.2-.02,1.4-.14,.65-.51,.62-3.59,.47-6.19l-.07-2.92q-.14-1.4-.17-1.92c-.04-.52-.14-1.4-.33-4.52-.12-2.08-1.9-3.07-2.81-3.49l-.79-.21h0Z"/><path class="cls-6" d="M142.23,675.5c-2.07-.56-5.19-.37-7.26-.23-.68-.01-1.56,.09-2.24,.08-1.04,.06-3.65,.9-5.54,1.58-.96,6.73-.22,11.02,.7,15.19,.64,.17,1.95,.35,3.43,.58,2.47,.32,6.09,.78,11.43,1.87,1.16,.14,1.68,.11,1.72-.05,.48-.55,.1-3.55-.11-5.32-.38-3.68-.2-5,.14-6.27,.14-1.16,.4-2.11-.18-5.68-.27-.92-.97-1.45-2.09-1.75h0Z"/><path class="cls-6" d="M159.3,676.67c-1.59-.43-3.38-.73-4.82-.44-1.36-.02-3.75,.02-5.32,.11-.68,6.98,.34,15.26,1.24,18.92,.48,.13,1.95,.35,3.58,.62,2.47,.32,6.09,.78,11.43,1.87,1.31,.18,1.72-.05,1.72-.05,.48-.55-.06-3.6-.2-5-.42-3.53-.24-4.84,.06-5.95,.1-1,.36-1.95-.31-5.2-.44-2.17-3.89-3.94-7.39-4.88h0Z"/><path class="cls-6" d="M180.72,676.29c-1.04,.06-1.88,0-2.72-.05-3.35-.22-5.1,1.87-5.68,2.74,.9,3.65,.45,6.6,.16,9.59-.29,2.99-.62,6.14,.15,10.27,1.43,.38,5.79,.02,8.91-.17,1.56-.1,3.32-.3,5.04-.35s2.02-1.16,1.94-5.96c-.03-.52-.02-1.2-.05-1.72-.02-3.75,0-5.12,.06-5.95q-.11-.88-.23-2.96l-.32-2.64c-.02-1.2-.69-1.89-2.12-2.27-1.11-.3-2.79-.4-5.14-.52Z"/><path class="cls-6" d="M207.14,675.7c-.88,.11-2.53,.52-3.9,1.17-2.37,.56-5.09,1.19-6.93,1.04-1.95-.36-2.97,.91-3.34,1.66,.63,2.72,.35,5.04,.07,7.35-.23,2.16-.47,4.31-.16,6.95,.45-.39,1.05-.74,1.45-.97,3.27-2.02,7.39-4.67,11.19-4.84,1.04-.06,2.05-.64,2.01-5.6l-.02-3.07q.06-1.52-.05-1.72c-.07-.36-.14-.72-.32-1.96h0Z"/><path class="cls-6" d="M223.51,671.22c-.16-.04-.12-.2-.12-.2-.36,.07-.6,.35-.96,.42-1.82,1.05-4.35,2.24-6.55,2.17-1.99-.19-3.17,1.03-3.7,1.74l-.04,.16c1.04,4.37,1.07,4.89,1.11,9.85,1.82-1.05,4.4-2.4,7.68-2.55,.52-.03,.88-.1,1.17-.54,.98-1.11,1.5-3.69,1.39-6.45-.04-2.4-.17-3.8,.04-4.6h0Z"/></g><path class="cls-3" d="M288.47,396.28c11.1,17.24,13.9,38.55,13.8,59.05-.08,15.19-1.69,30.75-8.39,44.38-9.23,18.79-28.23,32.42-48.99,35.21-20.75,2.79-42.65-5.3-56.65-20.86-14.58-16.2-20.06-38.53-23.11-60.1-2.73-19.29-3.92-38.79-3.56-58.27,.12-6.56,.45-13.26,2.81-19.39,9.57-24.75,43.2-27.5,65.51-22.51,21.85,4.89,46.69,24.02,58.58,42.49Z"/></svg>