<svg id="Livello_1" data-name="Livello 1" xmlns="http://www.w3.org/2000/svg" viewBox="0 0 979.32 978.7"><defs><style>.cls-1{fill:#3ccd64;}.cls-1,.cls-2,.cls-3{fill-rule:evenodd;}.cls-2{fill:#181918;}.cls-3{fill:#fff;}</style></defs><path class="cls-1" d="M474,10.59,457,12c-89.21,7.45-177.57,41.16-250,95.37-35.63,26.67-72.37,63.4-99.16,99.12C22.71,320-8.63,464.61,21.51,604.72,45.73,717.26,112.57,821.26,205.5,891c75.06,56.32,163.44,89.83,255.84,97,17.8,1.38,59.52,1.38,77.32,0,139-10.77,268.42-81.83,352.34-193.48,87.62-116.58,118.64-263.16,85.91-406C960.07,315.09,925.37,245.68,875.15,185c-12.24-14.79-45.34-47.89-60.15-60.14C736.7,60.05,649.16,23.11,548.5,12.4,535.36,11,483.9,9.75,474,10.59m0,36.55C289.56,58.71,129.56,181.33,70.32,356.5,56,399,49,438.76,46.49,492.25L45.9,505H60.71l.58,19.75c2.07,70.06,22,140.67,57.25,202.85C174.21,825.78,268.26,900,377.4,931.94c41,12,78.67,17.31,122.6,17.31,28.91,0,46.64-1.44,73-5.93,21.84-3.72,20.07-4,21.74,3.43.77,3.44,1.93,6.25,2.58,6.25s7.2-1.6,14.56-3.54C720,920.92,814,854,875.45,762c48.11-72,75-154.41,77.26-236.75l.58-21.25h-6.64c-6.22,0-6.65-.14-6.67-2.25-.07-8.44-2.26-40.36-3.5-50.92-9.88-84.54-44.7-165.26-100-231.83-10.29-12.39-35.31-37.92-48-49-70.08-61.1-155.1-98-247.72-107.53-8.1-.83-18.22-1.51-22.5-1.52s-10.14-.29-13-.64L500,59.72V46l-6.25.15c-3.44.07-12.33.52-19.75,1m-202.28,93.8A413.81,413.81,0,0,0,164.48,245.08C122.08,304.69,97,369,86.81,444c-2,14.51-2.23,20.95-2.27,53.5,0,30,.3,39.63,1.77,51,8.58,66.43,28.84,125.11,61.34,177.66l5.43,8.78,10.71-7.59,10.88-7.73c.1-.07-2.55-4.63-5.89-10.13A414.58,414.58,0,0,1,114.47,559c-23-155.77,43.3-308.13,171.83-394.84l13.81-9.32-2.18-3.67c-1.2-2-4.19-7.38-6.64-11.92s-4.54-8.25-4.63-8.24-6.81,4.47-14.94,9.93M506,144.79v13.79l18.25,1.17A339.17,339.17,0,0,1,714.5,233.6c12.75,10.19,38,35.09,48.16,47.4A336.4,336.4,0,0,1,806,348.5c17.37,35.37,26.89,67,32.65,108.5,1.3,9.37,1.74,19.51,1.76,40.5,0,29.64-.8,38.86-6,66.88a158.52,158.52,0,0,0-2.41,16v3.14l12.21,3.19c6.71,1.75,12.39,3,12.62,2.78,1.52-1.53,7.51-33.73,9.77-52.51,2.41-20.1,2.41-62,0-82-10-82.52-43.49-153.91-99.71-212.42A362.3,362.3,0,0,0,530.5,132c-7.7-.55-16.36-1-19.25-1H506v13.79M841.91,284.31l-10.59,7.19,1.87,3c6,9.67,17.14,31.07,23,44.37C874.7,380.6,885.37,423,889.08,469.5c1.34,16.78.73,57-1.09,72.5C875,651.66,819.44,749.49,733.3,814.25l-9.2,6.92,5.46,8.47c3,4.66,6.2,9.6,7.1,11s2.23,2.26,3.06,1.94c2.61-1,21.37-15.82,33.65-26.57C837,760.25,882,686.33,903.49,602.5c8.73-34.07,12.63-65.77,12.67-103,.06-61.47-11.4-116.1-36.1-172-8.35-18.89-25.36-50.63-27-50.44-.29,0-5.3,3.3-11.12,7.25M187.48,307.93c-23.13,35.75-42.93,87.83-50.4,132.57-3.93,23.55-4.58,32.47-4.53,62.5.07,36.52,2.62,57.59,10.9,90A366.49,366.49,0,0,0,295.5,807.66c18.17,12.13,40.16,24.15,41.49,22.67s11.36-23.32,10.92-23.68c-.23-.18-4.68-2.56-9.91-5.3-29.3-15.31-56.48-35.85-82.07-62C184.26,666.06,150.13,566.07,161.62,463c5.2-46.73,22.71-97.94,46.71-136.65,3.12-5,5.66-9.54,5.65-10s-5-4.12-11-8.11L192,301l-4.5,6.95" transform="translate(-10.31 -10.32)"/><path class="cls-2" d="M474,47.14C289.56,58.71,129.56,181.33,70.32,356.5,56,399,49,438.76,46.49,492.25L45.9,505H60.71l.58,19.75c2.07,70.06,22,140.67,57.25,202.85C174.21,825.78,268.26,900,377.4,931.94c41,12,78.67,17.31,122.6,17.31,28.91,0,46.64-1.44,73-5.93,21.84-3.72,20.07-4,21.74,3.43.77,3.44,1.93,6.25,2.58,6.25s7.2-1.6,14.56-3.54C720,920.92,814,854,875.45,762c48.11-72,75-154.41,77.26-236.75l.58-21.25h-6.64c-6.22,0-6.65-.14-6.67-2.25-.07-8.44-2.26-40.36-3.5-50.92-9.88-84.54-44.7-165.26-100-231.83-10.29-12.39-35.31-37.92-48-49-70.08-61.1-155.1-98-247.72-107.53-8.1-.83-18.22-1.51-22.5-1.52s-10.14-.29-13-.64L500,59.72V46l-6.25.15c-3.44.07-12.33.52-19.75,1m-202.28,93.8A413.81,413.81,0,0,0,164.48,245.08C122.08,304.69,97,369,86.81,444c-2,14.51-2.23,20.95-2.27,53.5,0,30,.3,39.63,1.77,51,8.58,66.43,28.84,125.11,61.34,177.66l5.43,8.78,10.71-7.59,10.88-7.73c.1-.07-2.55-4.63-5.89-10.13A414.58,414.58,0,0,1,114.47,559c-23-155.77,43.3-308.13,171.83-394.84l13.81-9.32-2.18-3.67c-1.2-2-4.19-7.38-6.64-11.92s-4.54-8.25-4.63-8.24-6.81,4.47-14.94,9.93M506,144.79v13.79l18.25,1.17A339.17,339.17,0,0,1,714.5,233.6c12.75,10.19,38,35.09,48.16,47.4A336.4,336.4,0,0,1,806,348.5c17.37,35.37,26.89,67,32.65,108.5,1.3,9.37,1.74,19.51,1.76,40.5,0,29.64-.8,38.86-6,66.88a158.52,158.52,0,0,0-2.41,16v3.14l12.21,3.19c6.71,1.75,12.39,3,12.62,2.78,1.52-1.53,7.51-33.73,9.77-52.51,2.41-20.1,2.41-62,0-82-10-82.52-43.49-153.91-99.71-212.42A362.3,362.3,0,0,0,530.5,132c-7.7-.55-16.36-1-19.25-1H506v13.79M278.36,236.46c-2.72,1.91-18.16,19.78-22.07,25.55-5.31,7.84-11.94,22-16.81,36-13.52,38.76-15.92,51.22-15.86,82.5,0,23.3,1.44,33.83,7.92,59.44,2.54,10,4,14,5.63,15.37a7.87,7.87,0,0,1,2.47,5.2,19.47,19.47,0,0,0,2.94,7.43,79.7,79.7,0,0,1,5.8,12.3c3,8,3.11,8.67,2.8,22-.28,11.91-.06,14.28,1.66,18.16,1.08,2.46,3,5.14,4.32,6s10.08,4.91,19.55,9.09c13.77,6.07,18.18,7.59,22.09,7.59a21.23,21.23,0,0,1,13.7,5c1.72,1.52,2.83,1.63,7.89.82a65.87,65.87,0,0,0,13-4c3.91-1.7,10.71-4.63,15.11-6.52s9.62-5,11.6-6.93c2.87-2.79,4.12-3.36,6.15-2.85,3.3.82,14.81-5.36,27.37-14.71,11.45-8.52,15.49-12.68,19.33-19.88,3.19-6,3.75-10,2-14.51-1.27-3.35.56-6.58,4.7-8.3,1.78-.74,3.89-3.12,5.68-6.4,3.38-6.2,16.38-31.1,21.79-41.73l3.82-7.5-3.65-3.08c-4.38-3.7-4.06-5.36,1.63-8.61l4-2.31,0-9c-.06-17.29-3.45-25.22-16-37.32-7.72-7.46-21.28-16.24-36.5-23.65-71.33-34.7-75.45-37-86.46-49.55-10.83-12.29-15-22.66-15-37v-7.24l-5,.66c-3.94.53-5.8.24-9-1.37-4.74-2.42-4.14-2.37-6.7-.57m563.55,47.85-10.59,7.19,1.87,3c6,9.67,17.14,31.07,23,44.37C874.7,380.6,885.37,423,889.08,469.5c1.34,16.78.73,57-1.09,72.5C875,651.66,819.44,749.49,733.3,814.25l-9.2,6.92,5.46,8.47c3,4.66,6.2,9.6,7.1,11s2.23,2.26,3.06,1.94c2.61-1,21.37-15.82,33.65-26.57C837,760.25,882,686.33,903.49,602.5c8.73-34.07,12.63-65.77,12.67-103,.06-61.47-11.4-116.1-36.1-172-8.35-18.89-25.36-50.63-27-50.44-.29,0-5.3,3.3-11.12,7.25M187.48,307.93c-23.13,35.75-42.93,87.83-50.4,132.57-3.93,23.55-4.58,32.47-4.53,62.5.07,36.52,2.62,57.59,10.9,90A366.49,366.49,0,0,0,295.5,807.66c18.17,12.13,40.16,24.15,41.49,22.67s11.36-23.32,10.92-23.68c-.23-.18-4.68-2.56-9.91-5.3-29.3-15.31-56.48-35.85-82.07-62C184.26,666.06,150.13,566.07,161.62,463c5.2-46.73,22.71-97.94,46.71-136.65,3.12-5,5.66-9.54,5.65-10s-5-4.12-11-8.11L192,301l-4.5,6.95m591.06,59.74c-6.11,17.16-19.26,39-29.1,48.3s-20.77,12.68-46.94,14.55a114.77,114.77,0,0,0-15.31,2.16c-6.77,1.63-7.9,1.56-24.69-1.49a223,223,0,0,0-22.5-2.65c-6.33-.36-22.75-1.57-36.5-2.71-39.9-3.29-51.63-1.86-73.36,8.92l-11.64,5.78.22,3.71c.29,5,3.84,19.47,6.63,27.1,3.38,9.21,6.93,14.27,10.53,15,3.37.67,6.12,4.8,6.12,9.19,0,1.63,1.23,3.82,3.25,5.81,1.79,1.76,8.84,9.78,15.67,17.83,11.61,13.67,12.68,14.66,16.5,15.16,5.22.69,10.58,6.36,10.58,11.19a7.07,7.07,0,0,0,1.9,4.9c1.05,1,10.05,5.3,20,9.66,17,7.45,18.52,7.93,25.16,7.93,8.42,0,10.91,1.09,11,4.78,0,2.34,1.26,3.44,8.75,7.85a123,123,0,0,0,19.72,8.81l11,3.68,8-3.91c13.64-6.68,17-7.68,21.38-6.36,5.75,1.72,8,1.45,9.05-1.1,2.09-5.21,8-26.64,8.66-31.25s1.26-5.56,10-14c8.3-8,9.8-10,13.76-18.5,2.44-5.22,4.75-11.08,5.13-13,.61-3.05,5.8-14.39,10.07-22,1.66-3,1.84-11.43.4-19.18-1-5.4-.93-5.68,2.37-10.59,3.56-5.28,5.95-15.33,8.75-36.73,1.35-10.35.75-52.18-.8-54.94-.77-1.38-1.51-.18-3.75,6.11m-300.85,110c-1.84,2.44-5.09,3.15-6.2,1.35-1-1.61-2.49-.09-2.49,2.54,0,1.32-1.59,6.8-3.54,12.19S461.08,506,460,509c-4.75,13.8-10,22-18.78,29.7a100.46,100.46,0,0,0-10.87,11.44c-10.56,13.49-17.19,19.55-26.71,24.47l-9.06,4.68-6.2-1.23c-6-1.19-6.52-1.12-15.06,2-4.87,1.76-14.71,4.76-21.86,6.67-10.34,2.75-14.09,3.34-18.33,2.86-5-.56-5.5-.42-8.25,2.53-3,3.2-3.89,6.91-1.67,6.91,3.07,0,14.9,6.69,22.71,12.83,4.7,3.7,10,7.77,11.84,9a9.59,9.59,0,0,1,3.87,5.24c.36,1.76,2.14,4.14,4.5,6a23.12,23.12,0,0,1,8.28,14.37,20.26,20.26,0,0,0,3.18,7.24c5,6.54,7,30,3.8,42.88-1.46,5.82-1.45,6.43.19,8.92l1.75,2.68L386,705c2.06-2.52,3.12-3.08,4.82-2.55s2.17,1.47,2.17,4.35v3.67l3.12-3.79c2.4-2.91,3.72-3.71,5.75-3.47,2.78.32,2.8.42,1.54,8l-.61,3.7,5.11-1.95c9-3.41,12.09-2.12,12.09,5v3.12l3.63-2.76c2.83-2.16,4.73-2.78,8.69-2.8,5.47,0,6.83,1.25,8.18,7.79l.58,2.83,3.76-3.88c4.51-4.64,11.82-8.28,16.65-8.28,4.05,0,6.46,2,9.51,8l2.08,4.08,2.58-2c7.27-5.72,21.39-3.7,26,3.72.94,1.5,1.85,2.92,2,3.16s1.54-.75,3.05-2.19c6.33-6,12.8-5.88,17,.41,2.13,3.22,2.8,3.68,3.5,2.43,1.17-2.09,4.53-3.83,8.78-4.53l3.5-.58.5-21.19c.5-21.33,1.25-25.43,4.11-22.57.88.88,1.94,28.63,1.89,49.6,0,.44,1.34,0,3-.95,2.89-1.71,3-1.7,5.27.4l2.29,2.15-.31-7.7A100.63,100.63,0,0,0,555,713.7c-2.54-12.83-.16-23.84,6.91-31.89,1.73-2,3.14-4.7,3.14-6.08s2.47-5.79,6.29-10.87a64.17,64.17,0,0,1,31-22.35c14.71-4.92,24-4.52,39.57,1.7,7.47,3,12.71,3.33,5.95.4a11.92,11.92,0,0,1-5.27-4.6,14.22,14.22,0,0,0-4-4.59c-3-2-3.85-4.37-2.66-7.52,2.53-6.73-9-13.44-28.26-16.44a13,13,0,0,1-6.68-3.38c-3.23-3.24-6.74-4.73-12.74-5.41a22.81,22.81,0,0,1-8.32-3.15c-2.2-1.45-5-2.57-6.18-2.47-3.86.3-4.37,0-7-4-2-3.09-3.44-4.09-6.38-4.59-11.58-1.94-14.89-4.59-19.24-15.4-2.56-6.35-4.09-8.55-8.82-12.71-3.64-3.21-7-5.28-9.37-5.72-4.22-.79-5.09-2.29-3.84-6.62.76-2.67.25-4.35-3.66-12A77.27,77.27,0,0,0,506,521.89c-5-5.42-6.25-7.65-12.48-21.89-7.54-17.23-8.42-19-9.47-19-.59,0-1.86-1.29-2.81-2.87l-1.75-2.87-1.79,2.37m-2.29,77.76a1.94,1.94,0,0,1-2.32.92c-1.22-.32-2.86.88-5.18,3.82-2.87,3.61-3.73,6-5.56,15.47a145.5,145.5,0,0,1-7.92,25.54c-5,12.4-5.82,15.49-6.21,22.6-.5,9,.75,13.8,3.87,14.79,2.79.88,8.33-2.17,12.87-7.09l4-4.37.64,2.54a42.94,42.94,0,0,1,.15,9.35c-.5,7,.31,10,2.72,10,.77,0,2.08-1,2.92-2.18,1.48-2.11,1.6-2.12,3.52-.38a4.64,4.64,0,0,0,4.42,1.19,3.45,3.45,0,0,1,3.66.88c2.23,2.68,6.05,1.75,10.05-2.46,5.27-5.53,7.94-13.25,7.94-22.91s-1.87-16.22-7.47-26.64a159,159,0,0,1-8-18.5c-5.36-15.1-9.91-24-12.28-24a2.22,2.22,0,0,0-1.83,1.39m138.35,90.79c-2.06.56-3.79,1.54-3.84,2.17s-.19,5.43-.3,10.65-.59,12.78-1.06,16.78c-.79,6.79-.69,7.44,1.41,9.68,3,3.17,4.49,2.39,7.45-3.86,3.27-6.91,4.76-16.11,4.39-27.1-.34-10.09-.58-10.34-8-8.32m-205.5,74.07c-2.26,2.83-4.38,8.16-7.33,18.41-1.71,6-3.76,11.57-4.56,12.46-1.27,1.44-1.13,2,1.19,4.75,2.62,3.12,5.65,3.92,8.35,2.21,1.8-1.14,7.07-22.12,7.09-28.2,0-9.23-1.91-13.17-4.74-9.63m-13.42.27c-2.38,3.65-8.83,22.18-8.83,25.39,0,5.23,2.82,8.79,5.73,7.24,1.4-.76,1.92-1.77,1.57-3.1-.28-1.08.25-6.6,1.17-12.26,1.6-9.76,1.8-19.47.36-17.27M454,723.39c-4.57,3.13-9.26,11.09-13,22-5.22,15.46-7.17,15.56-6.35.34.66-12.34-1.19-22.23-4.39-23.46-2-.75-6.8,4.6-7.78,8.59-.36,1.45-2.67,7.27-5.13,12.93-3.83,8.82-4.43,11.11-4.18,15.86l.3,5.56,6.5,2.45c12.85,4.84,40,9.75,42.1,7.63,4.34-4.34,6.25-42.9,2.51-50.55-2.23-4.55-5.38-5-10.63-1.36m27.57,5.7a15.65,15.65,0,0,0-4.48,6.75,197.87,197.87,0,0,0-4.79,30.23c-.57,8.8-.55,8.88,2,9.83,3.71,1.41,30.4,3,36.43,2.19,2.84-.39,5.79-1.23,6.56-1.87,1.73-1.43,4.23-13.59,3.29-16-.38-1-.84-6.25-1-11.75-.69-20.13-5.08-21.42-15.29-4.5-4.43,7.35-6.57,8.27-6.95,3-.88-12.38-1.41-14.36-4.75-17.7-4.11-4.1-6.46-4.15-10.95-.21M532,738.65c-4.18,6.58-6.07,13-5.85,19.9a72.67,72.67,0,0,1-.62,11.15c-.78,5-.72,5.22,1.73,5.83,3.88,1,6.67-1.15,9.44-7.21,2.38-5.19,2.49-6.23,2-18.16-.65-17.71-1.69-19.49-6.75-11.51m-137.92,30a12.44,12.44,0,0,0-2.92,10c.28,2.39.78,1.63,3-4.6,1.48-4.12,2.55-7.63,2.37-7.81s-1.29.9-2.47,2.39m8,4.8a22.49,22.49,0,0,0-2.85,9.25c-.6,7.24,1.32,7,2.84-.41a42.47,42.47,0,0,1,2.13-7.55,6.25,6.25,0,0,0,.63-3.5c-.24-1.22-1-.6-2.75,2.21m9,2.9c-2.4,6.29-2.53,17.69-.19,17.69,2.84,0,5.13-15.35,2.76-18.5-1.47-2-1.52-1.94-2.57.81M423,780.49a48.82,48.82,0,0,0-1.59,8.81c-.6,5.86-.46,6.53,2,9.26s2.66,2.89,4.12,1c2.16-2.79,2.1-17.82-.07-20s-3.33-2-4.43.92m14.35,3.1c-3.53,5.39-2.47,21,1.38,20.21,2.16-.42,6.54-15.28,5.77-19.55-.48-2.61-1.07-3.25-3-3.25a5.19,5.19,0,0,0-4.13,2.59m16.72,1c-4.37,5.56-6.44,17.84-3.5,20.79,4.86,4.86,10.43-2.7,10.43-14.15,0-9-2.89-11.77-6.93-6.64m19-.19c-3.37,4.07-5.34,18.85-2.84,21.35,3.83,3.83,9.32-1.09,10.34-9.27,1-7.74-.73-13.53-4-13.53a5.17,5.17,0,0,0-3.54,1.45m17.11,2.62c-2.27,2.43-3.15,6.2-3.15,13.45s2.22,8.1,6.75,2.89c2.69-3.1,3.25-4.57,3.25-8.51,0-9-2.79-12.19-6.85-7.83M508,788.19c-3.14,3.43-4.34,8.39-3.8,15.66l.32,4.35,2.88-2.27c5-3.95,8.1-13.91,6-19.35-.89-2.33-2.16-2-5.41,1.61m13.64-.65a21.33,21.33,0,0,0-.62,5.57,23,23,0,0,1-1.45,7.43c-1.39,3.31-1.36,3.43.41,2.48,2.46-1.32,5.27-8.85,4.87-13-.36-3.63-2.21-5-3.21-2.45m10.12,5.21c-.82,3.16-1.85,6.6-2.28,7.64-1.41,3.4,1.9,1.26,3.79-2.45s2.4-10.94.87-10.94c-.48,0-1.55,2.59-2.38,5.75m-148,2.57c-3.18,1.56-4,2.65-5.3,7.18-1.42,4.88-1.41,5.89.11,11.67,2.49,9.43,2,15.44-1.59,20.49-1.64,2.29-3,5.26-3,6.59s-1.23,3.51-3,5.09c-2.23,2-3,3.56-3,6.1,0,4.17,7.62,20.23,11.93,25.14,1.69,1.92,3.07,4,3.07,4.73,0,2.1,6.69,15.35,10.83,21.43,2.15,3.17,8.13,9.41,13.29,13.88,15.13,13.09,18.56,14.51,24,9.91a22.63,22.63,0,0,1,6.75-3.62c5.16-1.54,9.7.67,17.24,8.39l5.74,5.89,9.81.25c5.39.14,11.67.83,13.95,1.53,3.7,1.14,4.81,1,10.5-1,3.5-1.23,10.56-3.64,15.7-5.36,7.45-2.49,10.57-4.18,15.5-8.37,3.39-2.88,11.32-9,17.63-13.52,13.91-10,22.91-18.87,26.42-26a30.47,30.47,0,0,1,5.49-7.8c3.43-3,11.57-17.61,10.25-18.42-.5-.31-3.92,1.49-7.59,4-7.42,5.08-11.63,6.21-16.82,4.49-2.89-1-4.1-.86-7.06.55-4.72,2.26-6.66.77-6.66-5.09,0-3-.6-4.76-2.1-6.12-5.95-5.39-6.37-11.75-1.26-19.18,2-2.9,3.37-5.55,3.05-5.88-1.33-1.32-5.75.88-9.94,5-6.25,6.08-14.46,9.59-16.12,6.89-.83-1.33.66-2.83,5-5,4.11-2.09,8.33-6.4,8.35-8.55S543.74,820,545.82,820c2.55,0,7.79-4.35,9.72-8.07,1.38-2.68,1.31-3-1.24-5.54-1.48-1.48-2.85-2.24-3-1.68a15.2,15.2,0,0,1-1.74,2.9c-1.18,1.58-1.73,1.69-3.39.68s-2.22-.82-4,2.25c-2.38,4-3.43,4.27-5.53,1.27-.84-1.2-1.66-2-1.81-1.75s-1,1.79-1.95,3.44c-2.06,3.69-5.73,4.58-6.51,1.58s-1.45-2.61-4.07,1.43c-2.21,3.41-5.44,4.59-6.76,2.46-.37-.61-1.47,0-2.63,1.5-3.22,4.09-5.61,3.33-6.41-2-.87-5.84-3.25-5.67-5.49.39-2.84,7.7-6.54,7.73-7.56.06-.55-4.18-1-4.9-2.84-4.9-1.34,0-3.8,1.79-6.31,4.59s-4.78,4.46-5.93,4.24c-1-.18-2.93-2.48-4.31-5.1-3.05-5.82-5-5.75-6.7.22-.71,2.44-1.77,4.91-2.36,5.49-1.74,1.71-3.94-2.27-3.94-7.13,0-3.24-.39-4.31-1.57-4.31a6,6,0,0,0-5.91,4.92,8.79,8.79,0,0,1-2.1,4.15c-2,1.68-4.77-1-6.3-6.07-1.11-3.69-3.46-6-6.11-6-.62,0-2.21,2.47-3.55,5.5-3.13,7.08-5.85,7.53-7.49,1.25-2.29-8.8-2.51-9.25-4.69-9.56-1.68-.24-2.65.61-4.25,3.75-1.37,2.68-2.74,4.06-4,4.06-1.75,0-2-.69-2-6,0-5.64-.17-6.08-2.74-7.06s-3-.72-5,1.77a12.43,12.43,0,0,0-2.25,3.57c0,.41-.61.75-1.35.75-1.62,0-3.66-4.18-3.66-7.49,0-3.11-1.24-3.8-3.6-2-2.82,2.13-4.25,1.81-5.65-1.26l-1.25-2.77-3.74,1.85m3.54,21.33c-1.63,4.26,7.93,24.38,12,25.16,2.91.56,2.08-3-3.26-13.91-2.75-5.62-5-10.82-5-11.56,0-1.91-2.94-1.66-3.7.31m177.11,11.61a16.34,16.34,0,0,1-5,5.51c-1.89,1.24-3.43,2.81-3.43,3.49s2.14,3,4.75,5.08c4.1,3.32,5.26,3.78,8.5,3.35,5.88-.78,12.22-5,14.56-9.77,2.91-5.89,2.14-7-4.22-6.3-4.83.57-5.33.42-6.92-2-2.5-3.81-6.27-3.52-8.26.65" transform="translate(-10.31 -10.32)"/><path class="cls-3" d="M278.69,237.06c-2.73,1.91-18.17,19.78-22.07,25.55-5.32,7.84-12,22-16.82,36-13.52,38.76-15.92,51.22-15.86,82.5.05,23.3,1.45,33.83,7.93,59.44,2.54,10,4,14,5.63,15.37a7.87,7.87,0,0,1,2.47,5.2,19.43,19.43,0,0,0,2.93,7.43,79.7,79.7,0,0,1,5.8,12.3c3,8,3.12,8.67,2.81,22-.28,11.91-.07,14.28,1.65,18.17,1.09,2.45,3,5.13,4.32,5.95S267.57,531.83,277,536c13.77,6.07,18.19,7.59,22.1,7.59a21.25,21.25,0,0,1,13.7,5c1.72,1.52,2.82,1.63,7.88.82a65.87,65.87,0,0,0,13-4l15.12-6.52c4.4-1.89,9.62-5,11.6-6.93,2.87-2.79,4.11-3.36,6.14-2.85,3.3.82,14.82-5.36,27.37-14.71,11.46-8.52,15.5-12.67,19.34-19.88,3.19-6,3.74-10,2-14.51-1.27-3.35.56-6.58,4.7-8.3,1.77-.74,3.88-3.12,5.67-6.4,3.38-6.2,16.39-31.1,21.79-41.73l3.82-7.5L447.63,413c-4.37-3.7-4.06-5.36,1.63-8.61l4.05-2.31,0-9c0-17.29-3.44-25.22-15.95-37.32-7.72-7.46-21.28-16.24-36.5-23.65-71.34-34.7-75.45-37.05-86.46-49.55-10.83-12.29-15-22.66-15-37v-7.24l-5,.66c-4,.53-5.81.24-9-1.37-4.75-2.42-4.14-2.37-6.7-.57M778.87,368.27c-6.11,17.16-19.27,39-29.11,48.3S729,429.25,702.83,431.12a114.93,114.93,0,0,0-15.32,2.16c-6.77,1.63-7.9,1.56-24.68-1.49a223.35,223.35,0,0,0-22.5-2.65c-6.33-.35-22.75-1.57-36.5-2.71-39.9-3.29-51.64-1.86-73.37,8.92l-11.63,5.78.21,3.72c.29,5,3.85,19.46,6.64,27.09,3.37,9.21,6.92,14.27,10.53,15,3.36.67,6.12,4.8,6.12,9.19,0,1.63,1.22,3.82,3.25,5.81,1.78,1.76,8.83,9.78,15.66,17.83,11.62,13.67,12.69,14.66,16.5,15.16,5.22.69,10.59,6.36,10.59,11.19a7.07,7.07,0,0,0,1.9,4.9c1,1,10,5.3,20,9.66,17,7.45,18.53,7.93,25.16,7.93,8.43,0,10.92,1.09,11,4.79,0,2.33,1.26,3.43,8.75,7.84A123.38,123.38,0,0,0,674.84,590l11,3.68,8-3.91c13.65-6.68,17-7.68,21.38-6.36,5.75,1.72,8,1.45,9-1.1,2.1-5.21,8-26.64,8.67-31.25s1.26-5.56,10-14c8.3-8,9.81-10,13.76-18.5,2.44-5.22,4.75-11.07,5.14-13,.6-3.05,5.79-14.39,10.06-22,1.66-3,1.84-11.43.41-19.18-1-5.4-.93-5.68,2.37-10.59,3.55-5.28,6-15.33,8.74-36.73,1.36-10.34.75-52.18-.79-54.94-.78-1.38-1.52-.18-3.75,6.11M478,478.23c-1.84,2.44-5.09,3.15-6.2,1.35-1-1.61-2.49-.09-2.49,2.54,0,1.32-1.6,6.8-3.54,12.19s-4.39,12.27-5.43,15.29c-4.75,13.8-9.95,22-18.78,29.7a100.46,100.46,0,0,0-10.87,11.44c-10.56,13.49-17.18,19.55-26.71,24.47l-9.06,4.68-6.2-1.23c-6-1.19-6.51-1.12-15.05,2-4.88,1.76-14.71,4.76-21.86,6.67-10.34,2.75-14.1,3.34-18.34,2.86-5-.56-5.49-.42-8.25,2.53-3,3.21-3.89,6.91-1.66,6.91,3.06,0,14.9,6.69,22.7,12.83,4.7,3.7,10,7.77,11.84,9.05a9.61,9.61,0,0,1,3.88,5.24c.35,1.76,2.13,4.14,4.49,6a23,23,0,0,1,8.28,14.37,20.23,20.23,0,0,0,3.19,7.25c5,6.53,7,30,3.8,42.87-1.46,5.82-1.45,6.43.19,8.92l1.75,2.68,2.64-3.23c2.05-2.52,3.11-3.08,4.81-2.55s2.18,1.48,2.18,4.36v3.66l3.11-3.79c2.4-2.91,3.73-3.71,5.75-3.47,2.79.32,2.81.42,1.55,8l-.62,3.7,5.11-2c9-3.41,12.1-2.12,12.1,5.05v3.11l3.62-2.76c2.83-2.16,4.73-2.78,8.7-2.8,5.47,0,6.83,1.25,8.17,7.79l.58,2.83,3.77-3.88c4.5-4.64,11.82-8.28,16.64-8.28,4.06,0,6.47,2,9.51,8l2.09,4.08,2.57-2c7.28-5.73,21.39-3.71,26,3.71.94,1.5,1.85,2.92,2,3.16s1.55-.75,3.06-2.19c6.32-6,12.79-5.88,17,.41,2.12,3.22,2.79,3.68,3.49,2.43,1.17-2.09,4.54-3.83,8.79-4.53l3.5-.58.5-21.19c.5-21.33,1.25-25.43,4.11-22.57.88.89,1.94,28.63,1.89,49.6,0,.44,1.33,0,3-.95,2.89-1.71,3-1.7,5.27.4l2.29,2.15-.32-7.7a102.82,102.82,0,0,0-1.26-12.51c-2.55-12.83-.16-23.84,6.9-31.89,1.74-2,3.15-4.7,3.15-6.08s2.47-5.79,6.28-10.86a64.2,64.2,0,0,1,31-22.36c14.7-4.92,24-4.52,39.56,1.7,7.48,3,12.72,3.33,6,.4a11.81,11.81,0,0,1-5.27-4.6,14.12,14.12,0,0,0-4-4.59c-3-2-3.84-4.37-2.66-7.52,2.53-6.73-9-13.44-28.25-16.44a13,13,0,0,1-6.68-3.38c-3.24-3.24-6.74-4.73-12.75-5.41a22.88,22.88,0,0,1-8.32-3.15c-2.2-1.45-5-2.57-6.18-2.47-3.86.31-4.37,0-7-4-2.05-3.09-3.44-4.09-6.39-4.59-11.57-1.94-14.88-4.59-19.24-15.4-2.56-6.35-4.09-8.55-8.81-12.71-3.65-3.21-7-5.28-9.37-5.72-4.22-.79-5.09-2.29-3.85-6.62.77-2.67.26-4.35-3.65-12a77.79,77.79,0,0,0-9.35-14.12c-5-5.42-6.26-7.65-12.49-21.89-7.53-17.23-8.42-19-9.46-19-.59,0-1.86-1.29-2.82-2.87l-1.74-2.87L478,478.23M475.73,556a1.94,1.94,0,0,1-2.32.92c-1.23-.32-2.86.88-5.19,3.82-2.86,3.62-3.73,6-5.56,15.47a143.82,143.82,0,0,1-7.92,25.54c-5,12.4-5.81,15.49-6.21,22.6-.5,9,.76,13.8,3.88,14.79,2.79.88,8.33-2.17,12.87-7.09l4-4.37.64,2.54a42.78,42.78,0,0,1,.16,9.35c-.51,7,.31,10,2.72,10,.76,0,2.08-1,2.92-2.18,1.48-2.11,1.59-2.12,3.52-.38a4.62,4.62,0,0,0,4.41,1.19,3.45,3.45,0,0,1,3.66.88c2.23,2.68,6.06,1.75,10.06-2.45,5.26-5.54,7.94-13.26,7.94-22.92s-1.88-16.22-7.48-26.64a162.49,162.49,0,0,1-8-18.5c-5.35-15.1-9.9-24-12.28-24a2.19,2.19,0,0,0-1.82,1.39m138.35,90.8c-2.07.55-3.8,1.53-3.85,2.16s-.18,5.43-.3,10.65-.58,12.78-1,16.78c-.79,6.79-.7,7.44,1.4,9.68,3,3.17,4.5,2.39,7.46-3.86,3.26-6.91,4.75-16.11,4.39-27.1-.34-10.09-.58-10.34-8-8.31M408.57,720.85c-2.25,2.83-4.37,8.16-7.32,18.41-1.72,6-3.77,11.57-4.56,12.46-1.28,1.44-1.14,2,1.18,4.75,2.62,3.12,5.66,3.92,8.36,2.21,1.79-1.14,7.06-22.12,7.08-28.2,0-9.23-1.91-13.17-4.74-9.63m-13.41.27c-2.39,3.65-8.83,22.18-8.83,25.39,0,5.23,2.81,8.79,5.72,7.24,1.41-.76,1.93-1.77,1.58-3.1-.28-1.08.24-6.6,1.17-12.26,1.6-9.76,1.8-19.47.36-17.27M454.31,724c-4.58,3.13-9.26,11.09-12.95,22-5.23,15.46-7.17,15.56-6.36.34.66-12.34-1.19-22.23-4.39-23.46-1.95-.75-6.79,4.6-7.78,8.59-.36,1.45-2.66,7.27-5.12,12.94-3.83,8.81-4.44,11.1-4.18,15.85l.3,5.56,6.5,2.45c12.85,4.84,40,9.75,42.1,7.63,4.34-4.34,6.25-42.9,2.5-50.55-2.23-4.55-5.38-5-10.62-1.36m27.56,5.7a15.74,15.74,0,0,0-4.48,6.75,199.11,199.11,0,0,0-4.78,30.23c-.57,8.8-.56,8.88,2,9.83,3.71,1.41,30.39,3,36.42,2.19,2.85-.39,5.8-1.23,6.56-1.86,1.73-1.44,4.24-13.6,3.3-16-.38-1-.85-6.25-1-11.75-.69-20.13-5.08-21.42-15.29-4.5-4.44,7.35-6.58,8.27-6.95,3-.89-12.38-1.42-14.36-4.75-17.7-4.11-4.1-6.47-4.15-11-.21m50.47,9.56c-4.18,6.58-6.08,13-5.86,19.91a72.65,72.65,0,0,1-.61,11.14c-.78,5-.72,5.22,1.73,5.83,3.88,1,6.66-1.15,9.44-7.21,2.37-5.19,2.49-6.23,2.05-18.16-.65-17.71-1.7-19.49-6.75-11.51m-137.92,30a12.44,12.44,0,0,0-2.92,10c.27,2.39.77,1.63,3-4.6,1.48-4.12,2.54-7.63,2.36-7.81s-1.29.9-2.46,2.39m8,4.8a22.35,22.35,0,0,0-2.86,9.25c-.6,7.24,1.33,7,2.85-.41a42.47,42.47,0,0,1,2.13-7.55,6.32,6.32,0,0,0,.62-3.5c-.23-1.22-1-.6-2.74,2.21m9,2.9c-2.4,6.29-2.52,17.69-.19,17.69,2.84,0,5.14-15.35,2.77-18.5-1.47-2-1.53-1.94-2.58.81m11.93,4.18a47.94,47.94,0,0,0-1.59,8.81c-.6,5.86-.46,6.53,2,9.26s2.66,2.89,4.12,1c2.15-2.79,2.1-17.82-.08-20s-3.32-2-4.42.92m14.34,3.1c-3.53,5.39-2.46,21,1.39,20.22,2.15-.43,6.53-15.29,5.76-19.56-.47-2.61-1.06-3.25-3-3.25a5.22,5.22,0,0,0-4.13,2.59m16.73,1C450,790.8,448,803.09,450.9,806c4.85,4.86,10.43-2.7,10.43-14.14,0-9-2.9-11.78-6.93-6.65m19-.19c-3.37,4.07-5.33,18.85-2.83,21.35,3.82,3.83,9.31-1.09,10.33-9.27,1-7.74-.72-13.53-3.95-13.53a5.2,5.2,0,0,0-3.55,1.45m17.12,2.62c-2.27,2.43-3.15,6.2-3.15,13.45s2.21,8.1,6.75,2.89c2.68-3.1,3.25-4.57,3.25-8.51,0-9-2.79-12.19-6.85-7.83m17.82,1.12c-3.13,3.43-4.34,8.39-3.8,15.66l.33,4.35,2.87-2.27c5-3.95,8.1-13.91,6-19.35-.9-2.33-2.17-1.95-5.42,1.61m13.65-.65a21.33,21.33,0,0,0-.62,5.57,23,23,0,0,1-1.46,7.43c-1.38,3.31-1.36,3.43.42,2.48,2.46-1.32,5.27-8.84,4.86-13-.35-3.63-2.21-5.05-3.2-2.45m10.12,5.21c-.83,3.16-1.85,6.6-2.28,7.64-1.41,3.4,1.9,1.26,3.78-2.45s2.41-10.94.88-10.94c-.48,0-1.55,2.59-2.38,5.75m-148,2.57c-3.18,1.56-4,2.65-5.3,7.18-1.42,4.88-1.41,5.89.12,11.67,2.49,9.43,2,15.45-1.59,20.49-1.64,2.29-3,5.26-3,6.59s-1.23,3.51-3,5.09c-2.23,2-3,3.56-3,6.1,0,4.17,7.62,20.23,11.93,25.14,1.69,1.92,3.07,4.05,3.07,4.73,0,2.1,6.69,15.35,10.82,21.43,2.16,3.17,8.14,9.41,13.3,13.88,15.12,13.09,18.56,14.51,24,9.91a22.51,22.51,0,0,1,6.75-3.62c5.15-1.54,9.7.67,17.23,8.39l5.74,5.89L471,939c5.4.14,11.68.83,13.95,1.53,3.7,1.14,4.81,1,10.5-1,3.5-1.23,10.57-3.64,15.7-5.36,7.46-2.49,10.58-4.18,15.5-8.37,3.39-2.88,11.33-9,17.64-13.52,13.9-10,22.91-18.87,26.42-26a30.23,30.23,0,0,1,5.49-7.8c3.43-3,11.56-17.61,10.25-18.42-.51-.31-3.92,1.49-7.59,4-7.42,5.08-11.63,6.21-16.82,4.49-2.89-.95-4.1-.86-7.06.55-4.72,2.26-6.66.77-6.66-5.09,0-3-.6-4.76-2.11-6.12-6-5.39-6.37-11.75-1.25-19.18,2-2.9,3.37-5.55,3-5.88-1.32-1.32-5.74.88-9.93,5-6.26,6.08-14.47,9.59-16.13,6.89-.82-1.33.67-2.83,5-5,4.12-2.09,8.34-6.4,8.36-8.54s8.73-10.62,10.8-10.62c2.56,0,7.8-4.35,9.72-8.07,1.39-2.68,1.32-3-1.23-5.54-1.49-1.48-2.85-2.24-3-1.68a14.68,14.68,0,0,1-1.74,2.9c-1.17,1.58-1.73,1.69-3.39.68s-2.22-.82-4,2.25c-2.38,4-3.43,4.27-5.53,1.27-.85-1.2-1.66-2-1.81-1.75s-1,1.79-2,3.44c-2.07,3.69-5.73,4.58-6.51,1.58s-1.45-2.61-4.07,1.43c-2.21,3.41-5.45,4.59-6.77,2.46-.37-.61-1.46,0-2.63,1.5-3.21,4.09-5.6,3.34-6.4-2-.88-5.84-3.25-5.67-5.49.39-2.85,7.7-6.54,7.73-7.56.06-.56-4.18-1-4.9-2.84-4.9-1.34,0-3.8,1.79-6.31,4.59s-4.79,4.46-5.93,4.24-2.94-2.48-4.31-5.1c-3.06-5.82-5-5.75-6.7.22-.71,2.44-1.77,4.91-2.36,5.49-1.74,1.71-3.94-2.27-3.94-7.13,0-3.24-.39-4.31-1.57-4.31a6,6,0,0,0-5.92,4.92,8.7,8.7,0,0,1-2.1,4.15c-2,1.68-4.76-.95-6.3-6.07-1.1-3.69-3.45-6-6.1-6-.62,0-2.22,2.48-3.56,5.5-3.13,7.08-5.84,7.53-7.48,1.25-2.29-8.8-2.51-9.25-4.69-9.56-1.68-.24-2.65.61-4.25,3.75-1.37,2.68-2.75,4.06-4.05,4.06-1.76,0-2-.69-2-6,0-5.65-.18-6.09-2.75-7.07-2.42-.92-3-.72-5,1.77a12.55,12.55,0,0,0-2.26,3.57c0,.41-.61.75-1.34.75-1.62,0-3.66-4.18-3.66-7.49,0-3.11-1.24-3.8-3.61-2-2.82,2.13-4.25,1.81-5.64-1.26l-1.25-2.77-3.75,1.85m3.55,21.33c-1.64,4.27,7.92,24.39,11.95,25.16,2.92.56,2.09-3-3.25-13.91-2.75-5.62-5-10.82-5-11.56,0-1.91-2.94-1.66-3.7.31m177.11,11.61a16.28,16.28,0,0,1-5,5.51c-1.88,1.24-3.42,2.81-3.42,3.49s2.14,3,4.75,5.09c4.1,3.32,5.26,3.77,8.5,3.34,5.88-.78,12.21-5,14.56-9.77,2.91-5.89,2.13-7-4.23-6.3-4.83.57-5.33.42-6.92-2-2.5-3.82-6.26-3.53-8.25.64" transform="translate(-10.31 -10.32)"/></svg>