<?xml version="1.0" encoding="UTF-8" standalone="no"?>
<svg
   width="48"
   height="48"
   viewBox="0 0 48 48"
   fill="none"
   version="1.1"
   id="svg1343"
   sodipodi:docname="bluna.svg"
   inkscape:version="1.1.2 (0a00cf5339, 2022-02-04)"
   inkscape:export-filename="/media/kayanski/Cosmos/anchor/anchor-web-app/app/src/@anchor-protocol/token-icons/assets/bluna@4x.png"
   inkscape:export-xdpi="480"
   inkscape:export-ydpi="480"
   xmlns:inkscape="http://www.inkscape.org/namespaces/inkscape"
   xmlns:sodipodi="http://sodipodi.sourceforge.net/DTD/sodipodi-0.dtd"
   xmlns:xlink="http://www.w3.org/1999/xlink"
   xmlns="http://www.w3.org/2000/svg"
   xmlns:svg="http://www.w3.org/2000/svg">
  <defs
     id="defs1347">
    <linearGradient
       id="eb02f8e5-3128-479f-a28f-ac4d96c74535"
       x1="107.88"
       y1="180.59"
       x2="159.63"
       y2="302.5"
       gradientUnits="userSpaceOnUse">
      <stop
         offset="0"
         stop-color="#f7d45c"
         id="stop1060" />
      <stop
         offset="1"
         stop-color="#de3633"
         id="stop1062" />
    </linearGradient>
    <linearGradient
       id="b44de3ab-3e53-4c39-8dff-3838e27c7486"
       x1="46.599998"
       y1="58.200001"
       x2="167.36"
       y2="193.89999"
       xlink:href="#eb02f8e5-3128-479f-a28f-ac4d96c74535"
       gradientTransform="matrix(0.13335215,0,0,0.13335215,5.5052121,0.9846763)" />
    <linearGradient
       inkscape:collect="always"
       xlink:href="#eb02f8e5-3128-479f-a28f-ac4d96c74535"
       id="linearGradient1589"
       gradientUnits="userSpaceOnUse"
       x1="107.88"
       y1="180.59"
       x2="159.63"
       y2="302.5"
       gradientTransform="matrix(0.13335215,0,0,0.13335215,5.5052121,0.9846763)" />
  </defs>
  <sodipodi:namedview
     id="namedview1345"
     pagecolor="#ffffff"
     bordercolor="#666666"
     borderopacity="1.0"
     inkscape:pageshadow="2"
     inkscape:pageopacity="0.0"
     inkscape:pagecheckerboard="0"
     showgrid="false"
     inkscape:zoom="2.0364583"
     inkscape:cx="-17.432225"
     inkscape:cy="-37.565217"
     inkscape:window-width="1846"
     inkscape:window-height="1016"
     inkscape:window-x="0"
     inkscape:window-y="0"
     inkscape:window-maximized="1"
     inkscape:current-layer="svg1343" />
  <path
     d="M37.3 38.3C33.5 37.8 28.9 37.5 24 37.5C19.1 37.5 14.5 37.8 10.7 38.3H0V42.3C0 45 10.7 47.1 24 47.1C37.3 47.1 48 45 48 42.3V38.3H37.3Z"
     fill="#4BDB4B"
     id="path1335" />
  <ellipse
     cx="24"
     cy="38.3"
     rx="24"
     ry="4.8"
     fill="#145E02"
     id="ellipse1337" />
  <path
     id="ellipse1068"
     style="fill:#f2e373;stroke-width:0.133352"
     d="M 23.185547 5.6699219 A 17.583814 17.606484 0 0 0 5.6035156 23.275391 A 17.583814 17.606484 0 0 0 14.068359 38.300781 L 32.302734 38.300781 A 17.583814 17.606484 0 0 0 40.769531 23.275391 A 17.583814 17.606484 0 0 0 23.185547 5.6699219 z " />
  <path
     id="path1070"
     style="fill:url(#linearGradient1589);stroke-width:0.133352"
     d="M 30.332031 21.451172 L 6.3046875 28.617188 C 7.4008422 32.10968 9.6394856 35.331222 13.029297 37.712891 C 13.323866 37.919474 13.620482 38.114766 13.919922 38.300781 L 33.048828 38.300781 C 34.993828 37.190203 36.796738 35.766247 38.373047 34.078125 C 38.513067 33.927437 38.372954 33.678327 38.183594 33.763672 A 6.4089043 6.4089043 0 0 1 34.240234 34.253906 A 6.3048897 6.3048897 0 0 1 29.230469 29.255859 A 6.4009032 6.4009032 0 0 1 33.710938 21.871094 L 30.332031 21.451172 z " />
  <path
     d="m 27.556324,20.054034 a 11.026889,11.026889 0 0 0 1.377527,-0.68143 10.88687,10.88687 0 0 1 13.519241,2.170973 0.19336062,0.19336062 0 0 1 -0.18936,0.313378 c -2.995089,-0.630756 -6.223545,-0.754773 -8.682558,0.04934 -2.964419,0.972137 -5.139392,3.081768 -6.644938,5.699471 -2.205644,3.837875 -3.113773,4.923361 -6.676942,6.312891 C 14.050418,36.342999 8.2576005,34.146689 6.3066585,28.627243 A 17.751838,17.751838 0 0 1 15.065228,7.5909418 c 2.15097,-1.1388273 4.759338,-2.0989628 6.943646,-2.731052 2.105631,-0.6014182 5.688803,-1.4748748 6.612933,-3.7418614 a 0.20936288,0.20936288 0 0 1 0.400057,0.057341 c 0.369385,2.6790447 -0.244035,3.8992168 -1.781585,5.3460877 -1.666902,1.5695548 -3.724526,2.2843223 -5.570119,3.4178156 -2.815064,1.8669303 -3.70719,5.2767453 -1.84026,8.0918083 1.10949,1.673569 2.99909,2.561694 4.984703,2.561694 a 7.5770692,7.5770692 0 0 0 1.806922,-0.224031 7.008989,7.008989 0 0 0 0.934799,-0.31471 z"
     fill-rule="evenodd"
     fill="url(#b44de3ab-3e53-4c39-8dff-3838e27c7486)"
     id="path1072"
     style="fill:url(#b44de3ab-3e53-4c39-8dff-3838e27c7486);stroke-width:0.133352" />
</svg>
